<svg width="46" height="43" viewBox="0 0 46 43" fill="none" xmlns="http://www.w3.org/2000/svg">
<path fill-rule="evenodd" clip-rule="evenodd" d="M24.1548 41.0092C13.6519 41.6193 4.54072 33.9552 3.18942 23.6843L4.11217 24.6071C4.21811 24.713 4.35419 24.7633 4.49038 24.7633C4.62658 24.7633 4.76767 24.7129 4.8686 24.6071C5.08036 24.3953 5.08036 24.0575 4.8686 23.8457L2.89204 21.8692C2.89706 21.8742 2.88702 21.8642 2.89204 21.8692C2.87686 21.854 2.84672 21.8289 2.83154 21.8188C2.82149 21.8088 2.81133 21.8036 2.80129 21.7936C2.78108 21.7836 2.76601 21.7734 2.7458 21.7634C2.73576 21.7583 2.72057 21.7533 2.71053 21.7482C2.69032 21.7431 2.67023 21.7381 2.65505 21.733C2.63986 21.728 2.62479 21.7229 2.60961 21.7229C2.59442 21.7179 2.57433 21.7179 2.55413 21.7179C2.53894 21.7179 2.5289 21.7129 2.51383 21.7129C2.50379 21.7129 2.45823 21.7179 2.44818 21.7179C2.42798 21.7179 2.41291 21.7229 2.3927 21.728C2.37752 21.733 2.35743 21.738 2.34224 21.7431C2.32706 21.7482 2.31199 21.7532 2.2968 21.7634C2.28162 21.7734 2.26153 21.7785 2.24634 21.7886C2.23116 21.7986 2.21609 21.8038 2.20605 21.8138C2.19086 21.8239 2.1758 21.839 2.16061 21.8491C2.15057 21.8541 2.1404 21.8643 2.13538 21.8693L0.158824 23.8458C-0.0529413 24.0576 -0.0529413 24.3954 0.158824 24.6072C0.370589 24.8189 0.708386 24.8189 0.92015 24.6072L2.0799 23.4474C3.28496 34.0561 12.3155 42.1237 22.9899 42.1237C23.3984 42.1237 23.8118 42.1136 24.2202 42.0884C24.5177 42.0732 24.7445 41.8161 24.7245 41.5186C24.7044 41.221 24.4522 40.9942 24.1548 41.0092Z" fill="#4EA8DE"/>
<path fill-rule="evenodd" clip-rule="evenodd" d="M45.8411 17.5127C45.6293 17.301 45.2915 17.301 45.0798 17.5127L43.92 18.6725C43.3402 13.5143 40.9099 8.8099 37.0022 5.33088C32.8021 1.58953 27.3968 -0.291119 21.7798 0.0366228C21.4823 0.0518087 21.2555 0.308893 21.2756 0.606392C21.2908 0.903891 21.5479 1.13072 21.8454 1.11064C27.175 0.803091 32.3028 2.58797 36.2912 6.13765C39.9064 9.35958 42.1906 13.6807 42.8158 18.4356L41.893 17.5128C41.6812 17.3011 41.3434 17.3011 41.1317 17.5128C40.9199 17.7246 40.9199 18.0624 41.1317 18.2741L43.1082 20.2507C43.1234 20.2659 43.1485 20.286 43.1687 20.3012C43.1788 20.3062 43.1839 20.3163 43.194 20.3214C43.2192 20.3366 43.2444 20.3516 43.2697 20.3617C43.2645 20.3566 43.2747 20.3617 43.2697 20.3617C43.2999 20.3769 43.3504 20.3919 43.3856 20.402C43.4059 20.407 43.4259 20.407 43.4411 20.407C43.4563 20.407 43.4714 20.412 43.4866 20.412C43.4765 20.412 43.4966 20.412 43.4866 20.412C43.4966 20.412 43.537 20.407 43.5471 20.407C43.5673 20.407 43.5874 20.402 43.6026 20.3969C43.6177 20.3919 43.6328 20.3869 43.653 20.3818C43.6682 20.3767 43.6883 20.3717 43.7035 20.3615C43.7187 20.3565 43.7337 20.3464 43.7489 20.3363C43.7641 20.3263 43.7792 20.3211 43.7943 20.3111C43.8095 20.301 43.8246 20.2859 43.8398 20.2758C43.8498 20.2708 43.86 20.2606 43.865 20.2556L45.8416 18.279C46.0529 18.0624 46.0529 17.7246 45.8411 17.5127Z" fill="#4EA8DE"/>
<path fill-rule="evenodd" clip-rule="evenodd" d="M32.0153 20.5229H33.5431C33.4876 19.4691 33.2809 18.4556 32.938 17.5025L32.1666 17.8253C32.101 17.8555 32.0304 17.8656 31.9598 17.8656C31.748 17.8656 31.5463 17.7395 31.4606 17.5328C31.3446 17.2605 31.4758 16.9428 31.7531 16.8268L32.5246 16.5041C32.0808 15.5814 31.506 14.7293 30.8304 13.978L29.7514 15.057C29.6455 15.163 29.5094 15.2133 29.3732 15.2133C29.237 15.2133 29.0959 15.1628 28.995 15.057C28.7832 14.8453 28.7832 14.5075 28.995 14.2957L30.074 13.2167C29.3127 12.5309 28.4504 11.9511 27.5176 11.5074L27.1999 12.2788C27.1142 12.4856 26.9125 12.6116 26.7007 12.6116C26.6302 12.6116 26.5645 12.5964 26.494 12.5713C26.2217 12.4604 26.0906 12.1428 26.2015 11.8705L26.5192 11.099C25.5764 10.7662 24.5729 10.5595 23.5343 10.509V12.0368C23.5343 12.3343 23.2923 12.5763 22.9948 12.5763C22.6973 12.5763 22.4552 12.3343 22.4552 12.0368V10.509C21.4014 10.5645 20.3879 10.7713 19.4349 11.1141L19.7577 11.8856C19.8736 12.1578 19.7425 12.4755 19.4652 12.5915C19.3996 12.6218 19.329 12.6318 19.2584 12.6318C19.0467 12.6318 18.8449 12.5058 18.7592 12.2991L18.4365 11.5276C17.5137 11.9713 16.6616 12.5461 15.9104 13.2217L16.9894 14.3007C17.2012 14.5125 17.2012 14.8503 16.9894 15.062C16.8835 15.168 16.7474 15.2183 16.6112 15.2183C16.475 15.2183 16.3339 15.1679 16.233 15.062L15.1539 13.983C14.4682 14.7443 13.8884 15.6066 13.4446 16.5394L14.2161 16.8571C14.4884 16.9681 14.6194 17.2856 14.5086 17.5579C14.4229 17.7647 14.2211 17.8907 14.0094 17.8907C13.9388 17.8907 13.8732 17.8755 13.8026 17.8504L13.0311 17.5327C12.6984 18.4755 12.4916 19.479 12.4412 20.5176L13.9693 20.5178C14.2668 20.5178 14.5088 20.7599 14.5088 21.0574C14.5088 21.3549 14.2668 21.5969 13.9693 21.5969H12.4415C12.497 22.6507 12.7037 23.6642 13.0466 24.6172L13.8181 24.2945C14.0903 24.1785 14.408 24.3097 14.524 24.5869C14.64 24.8642 14.5088 25.1769 14.2315 25.2929L13.4601 25.6156C13.9038 26.5384 14.4786 27.3905 15.1542 28.1418L16.2332 27.0627C16.445 26.851 16.7828 26.851 16.9945 27.0627C17.2063 27.2745 17.2063 27.6123 16.9945 27.824L15.9155 28.9031C16.6768 29.5888 17.5391 30.1687 18.4719 30.6124L18.7896 29.8409C18.9005 29.5686 19.2181 29.4376 19.4904 29.5484C19.7627 29.6594 19.8937 29.977 19.7829 30.2492L19.4652 31.0207C20.408 31.3535 21.4115 31.5603 22.4501 31.6107V30.0829C22.4501 29.7854 22.6921 29.5434 22.9896 29.5434C23.2871 29.5434 23.5291 29.7854 23.5291 30.0829V31.6107C24.5829 31.5552 25.5964 31.3485 26.5495 31.0057L26.2267 30.2342C26.1107 29.9619 26.2419 29.6442 26.5192 29.5282C26.7915 29.4122 27.1092 29.5434 27.2252 29.8207L27.5479 30.5922C28.4706 30.1484 29.3227 29.5737 30.074 28.8981L28.995 27.819C28.7832 27.6073 28.7832 27.2695 28.995 27.0577C29.2067 26.8459 29.5445 26.8459 29.7563 27.0577L30.8353 28.1367C31.5211 27.3754 32.1009 26.5132 32.5446 25.5804L31.7731 25.2627C31.5009 25.1517 31.3698 24.8341 31.4807 24.5618C31.5916 24.2896 31.9092 24.1585 32.1815 24.2694L32.953 24.5871C33.2858 23.6442 33.4925 22.6408 33.543 21.6021L32.0153 21.6019C31.7178 21.6019 31.4758 21.3599 31.4758 21.0624C31.4758 20.7649 31.7178 20.5229 32.0153 20.5229ZM28.0018 20.1901L23.1461 21.5767C23.0957 21.5919 23.0453 21.5969 22.9999 21.5969C22.8436 21.5969 22.6923 21.5263 22.5864 21.4053L19.1173 17.2404C18.9258 17.0135 18.956 16.6707 19.1879 16.4841C19.4148 16.2926 19.7577 16.3228 19.9442 16.5547L23.1913 20.4473L27.7142 19.1565C28.0017 19.0758 28.299 19.2422 28.3798 19.5245C28.4505 19.8119 28.2891 20.1094 28.0018 20.1901Z" fill="#4EA8DE"/>
<path fill-rule="evenodd" clip-rule="evenodd" d="M33.3365 10.7209C30.5734 7.95782 26.9027 6.44006 22.9949 6.44006C19.0872 6.44006 15.4165 7.96284 12.6533 10.7209C9.89019 13.484 8.37244 17.1547 8.37244 21.0625C8.37244 24.9702 9.89521 28.6409 12.6533 31.4041C15.4164 34.1672 19.0871 35.685 22.9949 35.685C26.9026 35.685 30.5733 34.1622 33.3365 31.4041C39.0392 25.6962 39.0392 16.4237 33.3365 10.7209ZM33.7601 25.4997C33.1753 26.9064 32.3231 28.1821 31.2693 29.2459C31.2541 29.2611 31.2441 29.2812 31.229 29.2913C31.2138 29.3065 31.1987 29.3166 31.1835 29.3316C30.1247 30.3804 28.8692 31.2225 27.4776 31.8073C26.1011 32.3821 24.5834 32.6998 23.0001 32.6998C21.432 32.6998 19.9345 32.3872 18.568 31.8225C17.1612 31.2377 15.8856 30.3854 14.8166 29.3266C14.8014 29.3114 14.7813 29.3014 14.7712 29.2863C14.756 29.2711 14.7459 29.2561 14.7309 29.2409C13.6821 28.1821 12.8401 26.9265 12.2552 25.5349C11.6804 24.1584 11.3577 22.6408 11.3577 21.0575C11.3577 19.4894 11.6703 17.9918 12.235 16.6253C12.8199 15.2186 13.6721 13.9429 14.7259 12.874C14.741 12.8588 14.7511 12.8387 14.7662 12.8235C14.7813 12.8083 14.7964 12.7983 14.8166 12.7832C15.8754 11.7344 17.131 10.8924 18.5226 10.3075C19.8991 9.73275 21.4167 9.41504 23 9.41504C24.5681 9.41504 26.0657 9.72761 27.4322 10.2924C28.8389 10.8772 30.1146 11.7294 31.1836 12.7832C31.1987 12.7984 31.2188 12.8084 31.234 12.8235C31.2492 12.8387 31.2592 12.8538 31.2743 12.874C32.3231 13.9328 33.1651 15.1883 33.75 16.5799C34.3248 17.9565 34.6425 19.4741 34.6425 21.0574C34.6425 22.6255 34.3249 24.1332 33.7601 25.4997Z" fill="#4EA8DE"/>
<path d="M38.066 42.2044C39.0434 42.2044 39.8358 41.412 39.8358 40.4346C39.8358 39.4572 39.0434 38.6648 38.066 38.6648C37.0885 38.6648 36.2961 39.4572 36.2961 40.4346C36.2961 41.412 37.0885 42.2044 38.066 42.2044Z" fill="#4EA8DE"/>
<path d="M7.92877 6.53083C9.41577 6.53083 10.6212 5.32538 10.6212 3.83838C10.6212 2.35138 9.41577 1.14594 7.92877 1.14594C6.44178 1.14594 5.23633 2.35138 5.23633 3.83838C5.23633 5.32538 6.44178 6.53083 7.92877 6.53083Z" fill="#4EA8DE"/>
</svg>
